<?xml version="1.0" standalone="no"?>
<!DOCTYPE svg PUBLIC "-//W3C//DTD SVG 20010904//EN"
 "http://www.w3.org/TR/2001/REC-SVG-20010904/DTD/svg10.dtd">
<svg version="1.0" xmlns="http://www.w3.org/2000/svg"
 width="1080.000000pt" height="1080.000000pt" viewBox="0 0 1080.000000 1080.000000"
 preserveAspectRatio="xMidYMid meet">
<metadata>
Created by potrace 1.14, written by Peter Selinger 2001-2017
</metadata>
<g transform="translate(0.000000,1080.000000) scale(0.100000,-0.100000)"
fill="#000000" stroke="none">
<path d="M4207 8704 c-1 -1 -50 -5 -109 -8 -58 -4 -115 -8 -125 -10 -10 -2
-40 -7 -68 -10 -80 -11 -120 -18 -126 -22 -3 -2 -19 -5 -36 -8 -35 -7 -206
-59 -248 -76 -161 -67 -306 -152 -437 -257 -83 -66 -101 -83 -165 -158 -223
-263 -325 -606 -290 -985 8 -87 10 -98 42 -243 71 -313 441 -1094 898 -1892
66 -115 131 -229 145 -252 23 -42 55 -75 33 -37 -26 48 -115 439 -155 679 -22
130 -31 191 -51 350 -6 42 -13 110 -20 180 -3 33 -8 78 -10 100 -2 22 -7 87
-10 145 -4 58 -9 121 -11 140 -2 19 -6 192 -8 383 -4 305 -3 349 10 354 22 8
326 8 409 -1 255 -26 424 -75 560 -162 106 -68 164 -142 215 -274 29 -75 33
-98 35 -195 7 -255 -83 -503 -303 -845 -30 -47 -68 -101 -83 -121 -54 -68 -34
-59 116 52 200 148 378 356 497 579 64 119 139 328 154 429 5 35 17 161 17
186 0 28 -12 156 -17 180 -64 305 -238 525 -533 674 -44 22 -93 45 -109 52
-29 11 -28 12 61 46 126 49 226 73 330 80 211 13 332 -50 415 -213 250 -497
637 -871 971 -939 111 -23 321 -28 414 -10 110 22 230 69 305 119 80 54 201
178 143 148 -34 -18 -188 -52 -252 -55 -123 -6 -238 21 -376 90 -128 64 -253
173 -329 286 -31 48 -105 194 -115 228 -2 8 -15 52 -28 99 -132 463 -191 585
-370 767 -56 57 -106 103 -111 103 -5 0 -22 11 -37 24 -73 63 -376 191 -496
210 -20 3 -47 10 -60 15 -13 5 -27 9 -32 9 -4 0 -31 5 -60 11 -70 14 -124 22
-237 36 -54 7 -349 23 -353 19z"/>
<path d="M6253 8341 c-226 -78 -325 -402 -211 -691 81 -205 280 -382 447 -397
163 -15 299 119 363 354 24 93 29 259 8 343 -13 57 -57 153 -88 193 -133 172
-352 256 -519 198z"/>
<path d="M8532 8038 c-187 -32 -305 -200 -296 -420 8 -218 136 -422 343 -547
334 -202 591 -36 577 374 -5 147 -20 207 -77 316 -104 196 -337 314 -547 277z"/>
<path d="M7332 7258 c-34 -4 -78 -9 -97 -12 -163 -26 -347 -103 -492 -205 -78
-55 -92 -75 -43 -61 17 5 31 9 33 8 4 0 122 14 147 18 37 6 277 5 330 -2 314
-39 576 -187 729 -412 59 -88 77 -128 105 -242 33 -134 41 -206 40 -355 -4
-299 -121 -593 -338 -850 -113 -133 -322 -316 -445 -388 l-31 -18 21 53 c12
29 30 75 41 101 165 423 143 882 -55 1160 -262 368 -743 469 -1245 263 -249
-102 -451 -243 -663 -461 -305 -315 -503 -824 -493 -1270 10 -491 264 -862
664 -970 87 -24 339 -29 430 -9 189 40 375 120 536 231 149 102 289 228 421
379 l63 70 92 2 c51 2 104 4 118 7 14 2 45 6 70 10 25 4 59 9 75 11 69 11 232
56 323 90 186 70 328 153 508 295 162 129 397 382 499 537 28 42 30 43 69 36
58 -9 285 -85 383 -127 433 -188 804 -514 1061 -932 60 -100 163 -298 177
-344 4 -13 14 -40 23 -60 9 -20 16 -39 16 -43 1 -3 4 -10 8 -14 8 -7 2 364 -6
406 -3 14 -10 62 -16 107 -26 199 -98 429 -195 625 -44 90 -174 302 -194 318
-3 3 -26 30 -50 60 -185 232 -515 476 -793 587 -26 10 -36 20 -33 33 4 22 18
189 17 211 0 13 14 15 91 14 120 -1 218 10 325 36 92 23 292 105 292 120 0 5
5 9 11 9 24 0 169 114 246 193 157 161 274 348 360 576 14 38 19 60 11 54
-321 -254 -665 -409 -993 -448 -49 -6 -241 -6 -280 -1 -108 15 -139 20 -200
36 -165 44 -272 93 -425 194 -303 200 -597 320 -900 367 -84 13 -267 17 -348
7z m-637 -1123 c204 -24 388 -157 486 -350 104 -206 131 -450 78 -729 -13 -72
-67 -242 -99 -312 l-27 -60 -69 -21 c-76 -24 -242 -63 -289 -69 -28 -3 -89
-13 -125 -19 -67 -12 -173 -21 -355 -30 -77 -4 -141 -9 -143 -10 -4 -4 119
-68 197 -102 78 -34 231 -89 272 -97 13 -2 44 -9 69 -14 46 -11 141 -25 172
-26 14 0 11 -7 -15 -36 -236 -257 -563 -441 -847 -475 -93 -12 -246 -7 -310
10 -108 28 -205 77 -281 142 -57 48 -128 142 -159 208 -31 69 -49 115 -45 115
3 0 0 11 -5 24 -32 86 -33 336 -1 485 61 283 162 477 428 826 61 80 211 225
308 298 94 71 318 189 395 208 156 39 253 48 365 34z"/>
<path d="M1908 6446 c-1 -2 -45 -6 -96 -9 -208 -14 -494 -115 -681 -241 -29
-20 -55 -36 -57 -36 -3 0 -10 -4 -17 -10 -7 -5 -50 -40 -97 -77 -95 -75 -245
-222 -305 -298 -22 -27 -43 -52 -46 -55 -19 -16 -121 -192 -170 -295 -130
-275 -192 -541 -188 -811 1 -97 7 -144 33 -291 4 -18 18 -65 32 -105 124 -343
366 -550 709 -603 58 -9 211 -7 275 4 264 45 507 163 745 363 110 93 260 249
329 343 17 22 33 42 36 45 4 3 11 13 16 23 9 16 16 14 70 -24 79 -55 128 -111
166 -189 27 -56 31 -75 32 -150 0 -47 -3 -98 -6 -115 -16 -82 -90 -257 -107
-253 -6 2 -146 -12 -171 -17 -8 -2 -35 -6 -60 -10 -532 -80 -1167 -375 -1613
-749 -105 -87 -221 -195 -216 -200 2 -2 42 15 89 38 133 65 318 148 425 191
39 15 84 33 100 40 88 37 438 159 486 170 10 2 66 17 125 33 225 62 477 110
669 127 39 3 90 8 115 11 55 6 344 6 385 0 30 -5 114 -11 295 -21 90 -6 127
-9 210 -20 19 -3 55 -7 80 -10 100 -13 278 -47 375 -72 33 -8 67 -16 75 -18 8
-2 35 -9 60 -16 25 -7 50 -13 55 -15 16 -3 139 -39 255 -74 196 -58 345 -101
363 -105 9 -2 21 -6 25 -9 5 -3 19 -7 33 -9 13 -3 78 -19 144 -36 132 -34 236
-56 305 -66 25 -3 52 -8 60 -10 66 -17 330 -24 465 -12 294 27 574 130 810
297 147 105 343 315 410 440 6 12 -48 -35 -115 -100 -34 -34 -110 -90 -190
-142 -208 -136 -437 -223 -665 -253 -22 -3 -58 -8 -80 -10 -52 -6 -271 -6
-310 0 -16 2 -66 9 -110 15 -44 6 -127 23 -185 37 -147 35 -215 58 -705 236
-143 52 -324 115 -401 141 -132 42 -421 119 -489 130 -16 2 -32 5 -35 5 -3 1
-5 22 -5 49 1 92 -35 297 -65 367 -79 182 -149 289 -265 401 -46 45 -117 103
-157 130 -40 27 -75 51 -78 54 -11 11 -149 80 -210 105 -36 14 -74 30 -85 35
-11 5 -44 16 -72 25 -29 9 -53 20 -53 25 0 5 15 47 34 93 31 78 76 223 90 292
4 17 9 41 11 55 15 73 20 150 19 285 -2 169 -22 271 -79 405 -122 289 -397
489 -709 515 -39 4 -81 8 -93 10 -12 2 -23 2 -25 1z m199 -296 c241 -49 419
-215 502 -468 53 -161 66 -360 36 -547 -15 -97 -78 -310 -95 -320 -4 -2 -22 0
-40 5 -153 44 -449 46 -652 4 -40 -8 -86 -17 -103 -20 -68 -13 -298 -95 -399
-142 -172 -82 -426 -241 -361 -227 11 2 61 14 110 25 92 21 290 54 380 64 28
3 73 8 101 11 115 13 384 7 484 -10 14 -3 39 -7 56 -10 49 -8 208 -55 218 -65
13 -13 -61 -106 -174 -220 -165 -166 -337 -281 -525 -353 -203 -77 -392 -97
-579 -61 -135 26 -290 124 -369 234 -199 275 -200 680 -3 1096 117 246 379
580 583 742 181 145 414 249 601 268 31 4 58 7 59 9 7 5 119 -5 170 -15z"/>
<path d="M4028 4614 c-172 -44 -270 -197 -263 -411 7 -210 129 -413 322 -536
334 -212 593 -73 597 322 1 159 -24 266 -89 376 -112 191 -365 302 -567 249z"/>
</g>
</svg>
